<svg width="24" height="24" viewBox="0 0 24 24" fill="none" xmlns="http://www.w3.org/2000/svg">
<path d="M5.52381 4C4.6781 4 4 4.6781 4 5.52381V13.9048C4 14.7505 4.6781 15.4286 5.52381 15.4286H13.9048C14.7505 15.4286 15.4286 14.7505 15.4286 13.9048V12.381C15.4286 11.9602 15.0875 11.619 14.6667 11.619C14.2459 11.619 13.9048 11.9602 13.9048 12.381V13.9048H5.52381V5.52381H13.9048V6.28571C13.9048 6.7065 14.2459 7.04762 14.6667 7.04762C15.0875 7.04762 15.4286 6.7065 15.4286 6.28571V5.52381C15.4286 4.6781 14.7505 4 13.9048 4H5.52381ZM10.0952 8.57143C9.24952 8.57143 8.57143 9.24952 8.57143 10.0952V11.619C8.57143 12.0398 8.91255 12.381 9.33333 12.381C9.75412 12.381 10.0952 12.0398 10.0952 11.619V10.0952H18.4762V18.4762H10.0952V17.7143C10.0952 17.2935 9.75412 16.9524 9.33333 16.9524C8.91255 16.9524 8.57143 17.2935 8.57143 17.7143V18.4762C8.57143 19.3219 9.24952 20 10.0952 20H18.4762C19.3219 20 20 19.3219 20 18.4762V10.0952C20 9.24952 19.3219 8.57143 18.4762 8.57143H10.0952Z" fill="#149372"/>
</svg>
