<svg width="10" height="12" viewBox="0 0 10 12" fill="none" xmlns="http://www.w3.org/2000/svg">
<path d="M3.15568 10.7692C2.31417 10.7692 1.52875 10.4471 0.925666 9.84495C0.322581 9.25678 0 8.47254 0 7.64629C0 6.86206 0.308555 6.11984 0.869565 5.57367L5.84853 0.672202C6.28331 0.238071 6.87237 0 7.51753 0C8.19074 0 8.8359 0.252076 9.28471 0.70021C9.73352 1.14834 10 1.79254 10 2.46474C10 3.09493 9.76157 3.6831 9.31276 4.11724L5.06311 8.30449C4.74053 8.62659 4.30575 8.79464 3.84292 8.79464C3.36606 8.79464 2.90323 8.59858 2.58065 8.27648C2.24404 7.94038 2.04769 7.47824 2.04769 7.0161C2.04769 6.56797 2.23001 6.11984 2.55259 5.81174L5.91865 2.49275L6.50771 3.09493L3.14165 6.41392C2.97335 6.56797 2.8892 6.79204 2.8892 7.0161C2.8892 7.25418 2.98738 7.50625 3.16971 7.6743C3.35203 7.85636 3.59046 7.95439 3.84292 7.95439C4.08135 7.95439 4.30575 7.87036 4.47405 7.70231L8.70968 3.51505C8.99018 3.23497 9.14446 2.87086 9.14446 2.46474C9.14446 2.0166 8.97616 1.59648 8.68163 1.30239C8.3871 1.02231 7.95231 0.854256 7.50351 0.854256C7.09677 0.854256 6.70407 1.0083 6.43759 1.28839L1.45863 6.18986C1.06592 6.58197 0.841515 7.10013 0.841515 7.6603C0.841515 8.26248 1.07994 8.82265 1.51473 9.25678C1.94951 9.69091 2.53857 9.92898 3.14165 9.92898C3.71669 9.92898 4.24965 9.71891 4.64236 9.3268L8.75175 5.27958L9.34081 5.88176L9.01823 6.20386L5.23142 9.92898C4.69846 10.4751 3.95512 10.7692 3.15568 10.7692Z" fill="#149372"/>
</svg>
