<svg width="16" height="13" viewBox="0 0 16 13" fill="none" xmlns="http://www.w3.org/2000/svg">
<path d="M12.5682 3.67037H5.89483L5.16394 2.28803C5.08449 2.12914 4.90971 2.01791 4.71904 2.01791H0.508449C0.222446 2.01791 0 2.24036 0 2.52636V12.0916C0 12.3776 0.222446 12.6 0.508449 12.6H12.5682C12.8542 12.6 13.0767 12.3776 13.0767 12.0916V4.17882C13.0767 3.90871 12.8542 3.67037 12.5682 3.67037Z" fill="#149372"/>
<path d="M14.5855 1.65246H7.11764L6.38675 0.270114C6.3073 0.111223 6.13252 0 5.94186 0H2.19204C1.90604 0 1.68359 0.222447 1.68359 0.508449C1.68359 0.794452 1.90604 1.0169 2.19204 1.0169H5.63996L6.37086 2.39924C6.4503 2.55814 6.62508 2.66936 6.81575 2.66936H14.0929V10.4073C14.0929 10.6933 14.3154 10.9158 14.6014 10.9158C14.8874 10.9158 15.1098 10.6933 15.1098 10.4073V2.16091C15.0939 1.8908 14.8715 1.65246 14.5855 1.65246Z" fill="#149372"/>
</svg>
