<svg width="17" height="17" viewBox="0 0 18 18" fill="none" xmlns="http://www.w3.org/2000/svg">
<path d="M0.999994 13.5L0.499994 13.5L0.499994 14L0.999994 14L0.999994 13.5ZM17.8536 13.8535C18.0488 13.6583 18.0488 13.3417 17.8536 13.1464L14.6716 9.96446C14.4763 9.7692 14.1597 9.7692 13.9645 9.96446C13.7692 10.1597 13.7692 10.4763 13.9645 10.6716L16.7929 13.5L13.9645 16.3284C13.7692 16.5237 13.7692 16.8403 13.9645 17.0355C14.1597 17.2308 14.4763 17.2308 14.6716 17.0355L17.8536 13.8535ZM0.499994 -7.43095e-07L0.499994 13.5L1.49999 13.5L1.49999 -6.99383e-07L0.499994 -7.43095e-07ZM0.999994 14L17.5 14L17.5 13L0.999994 13L0.999994 14Z" fill="black"/>
</svg>
