<svg width="15" height="15" viewBox="0 0 15 15" fill="none" xmlns="http://www.w3.org/2000/svg">
<rect width="15" height="15" rx="2" fill="#3D50AA"/>
<path d="M5.20711 6.79289C4.81658 6.40237 4.18342 6.40237 3.79289 6.79289C3.40237 7.18342 3.40237 7.81658 3.79289 8.20711L5.20711 6.79289ZM6.5 9.5L5.79289 10.2071C5.98764 10.4019 6.25408 10.5077 6.52937 10.4996C6.80467 10.4915 7.06444 10.3702 7.24741 10.1644L6.5 9.5ZM11.2474 5.66436C11.6143 5.25158 11.5771 4.61951 11.1644 4.25259C10.7516 3.88567 10.1195 3.92285 9.75259 4.33564L11.2474 5.66436ZM3.79289 8.20711L5.79289 10.2071L7.20711 8.79289L5.20711 6.79289L3.79289 8.20711ZM7.24741 10.1644L11.2474 5.66436L9.75259 4.33564L5.75259 8.83564L7.24741 10.1644Z" fill="white"/>
</svg>
