<svg width="18" height="18" viewBox="0 0 18 18" fill="none" xmlns="http://www.w3.org/2000/svg">
<path d="M15.0672 3.98637C15.1141 3.92612 15.193 3.83978 15.2957 3.75298C15.4928 3.5863 15.6964 3.48986 15.9044 3.50868C16.0215 3.51928 16.1309 3.56764 16.2272 3.65404C16.278 3.6996 16.3204 3.74777 16.3546 3.79841C16.5124 4.03204 16.4831 4.28114 16.3466 4.5069C16.3056 4.5746 16.2643 4.62538 16.2331 4.65712L6.45324 14.4369H6.24111L1.66438 9.85844C1.64603 9.83459 1.62224 9.7968 1.59918 9.74681C1.50548 9.54373 1.50615 9.31811 1.66705 9.11112C1.70033 9.06832 1.73995 9.02754 1.78598 8.98891C1.80645 8.97216 1.80645 8.97216 1.82728 8.95682C2.07904 8.77645 2.34631 8.83406 2.58447 9.02329C2.66122 9.08428 2.71845 9.14511 2.74072 9.17533L6.34686 12.7973L15.0672 3.98637Z" fill="#2D9187"/>
<mask id="mask0" mask-type="alpha" maskUnits="userSpaceOnUse" x="1" y="3" width="16" height="12">
<path d="M15.0672 3.98637C15.1141 3.92612 15.193 3.83978 15.2957 3.75298C15.4928 3.5863 15.6964 3.48986 15.9044 3.50868C16.0215 3.51928 16.1309 3.56764 16.2272 3.65404C16.278 3.6996 16.3204 3.74777 16.3546 3.79841C16.5124 4.03204 16.4831 4.28114 16.3466 4.5069C16.3056 4.5746 16.2643 4.62538 16.2331 4.65712L6.45324 14.4369H6.24111L1.66438 9.85844C1.64603 9.83459 1.62224 9.7968 1.59918 9.74681C1.50548 9.54373 1.50615 9.31811 1.66705 9.11112C1.70033 9.06832 1.73995 9.02754 1.78598 8.98891C1.80645 8.97216 1.80645 8.97216 1.82728 8.95682C2.07904 8.77645 2.34631 8.83406 2.58447 9.02329C2.66122 9.08428 2.71845 9.14511 2.74072 9.17533L6.34686 12.7973L15.0672 3.98637Z" fill="white"/>
</mask>
<g mask="url(#mask0)">
<rect width="18" height="18" fill="#2D9187"/>
</g>
</svg>
