<?xml version="1.0" encoding="UTF-8"?>
<svg width="18px" height="18px" viewBox="0 0 18 18" version="1.1" xmlns="http://www.w3.org/2000/svg" xmlns:xlink="http://www.w3.org/1999/xlink">
    <title>icons/search copy</title>
    <defs>
        <path d="M12.3333333,3.5 L15.8333333,3.5 C16.2015232,3.5 16.5,3.79847683 16.5,4.16666667 C16.5,4.5348565 16.2015232,4.83333333 15.8333333,4.83333333 L14.8333333,4.83333333 L14.8333333,15.8333333 C14.8333333,17.1219977 13.7886644,18.1666667 12.5,18.1666667 L4.16666667,18.1666667 C2.87800225,18.1666667 1.83333333,17.1219977 1.83333333,15.8333333 L1.83333333,4.83333333 L0.833333333,4.83333333 C0.4651435,4.83333333 0.166666667,4.5348565 0.166666667,4.16666667 C0.166666667,3.79847683 0.4651435,3.5 0.833333333,3.5 L4.33333333,3.5 L4.33333333,2.5 C4.33333333,1.21133558 5.37800225,0.166666667 6.66666667,0.166666667 L10,0.166666667 C11.2886644,0.166666667 12.3333333,1.21133558 12.3333333,2.5 L12.3333333,3.5 Z M11,2.5 C11,1.94771525 10.5522847,1.5 10,1.5 L6.66666667,1.5 C6.11438192,1.5 5.66666667,1.94771525 5.66666667,2.5 L5.66666667,3.5 L11,3.5 L11,2.5 Z M13.5,4.83333333 L3.16666667,4.83333333 L3.16666667,15.8333333 C3.16666667,16.3856181 3.61438192,16.8333333 4.16666667,16.8333333 L12.5,16.8333333 C13.0522847,16.8333333 13.5,16.3856181 13.5,15.8333333 L13.5,4.83333333 Z" id="path-1"></path>
    </defs>
    <g id="symbols" stroke="none" stroke-width="1" fill="none" fill-rule="evenodd">
        <g id="forms/form-field-(full-+-icon)" transform="translate(-286.000000, -21.000000)">
            <g id="Group" transform="translate(285.000000, 20.000000)">
                <g id="color/gray-#1" transform="translate(1.666667, 0.833333)">
                    <mask id="mask-2" fill="white">
                        <use xlink:href="#path-1"></use>
                    </mask>
                    <g id="Mask" fill-rule="nonzero"></g>
                    <g id="Group" mask="url(#mask-2)">
                        <g transform="translate(-1.666667, -0.833333)" id="color/gray-#1">
                            <rect id="Rectangle" fill="#E6535F" x="0" y="0" width="20" height="20"></rect>
                        </g>
                    </g>
                </g>
            </g>
        </g>
    </g>
</svg>