<svg width="26" height="24" viewBox="0 0 26 24" fill="none" xmlns="http://www.w3.org/2000/svg">
<path d="M11.0306 13.5219C11.3735 12.7944 11.8615 12.1392 12.4667 11.5939C13.0719 11.0485 13.7824 10.6235 14.5577 10.3433C15.333 10.0631 16.1579 9.93312 16.9853 9.96076C17.8126 9.98841 18.6262 10.1732 19.3796 10.5044C20.1331 10.8355 20.8116 11.3067 21.3765 11.891C21.9414 12.4753 22.3815 13.1613 22.6717 13.9099C22.9619 14.6585 23.0966 15.4549 23.0679 16.2537C23.0393 17.0526 22.848 17.8381 22.5048 18.5655C22.0055 19.63 21.1985 20.5326 20.1808 21.165C19.1631 21.7975 17.978 22.1328 16.7677 22.1308C14.336 22.1308 12.1114 20.7743 11.0667 18.6525H2.35742V16.9133C2.41146 15.922 3.11396 15.1133 4.46493 14.4611C5.8159 13.8089 7.50911 13.4697 9.56258 13.435C10.0759 13.435 10.5623 13.4784 11.0306 13.5219ZM16.7677 20.3917C17.9621 20.3917 19.1075 19.9336 19.952 19.1182C20.7965 18.3028 21.271 17.1969 21.271 16.0437C21.271 14.8906 20.7965 13.7847 19.952 12.9693C19.1075 12.1539 17.9621 11.6958 16.7677 11.6958C15.5734 11.6958 14.428 12.1539 13.5835 12.9693C12.739 13.7847 12.2645 14.8906 12.2645 16.0437C12.2645 17.1969 12.739 18.3028 13.5835 19.1182C14.428 19.9336 15.5734 20.3917 16.7677 20.3917ZM15.8671 13.435H17.2181V15.8872L19.4156 17.1133L18.7401 18.2438L15.8671 16.6437V13.435Z" fill="#149372"/>
<path d="M6.27246 3.62611L5.96094 6.47835H13.1661L12.85 3.62611C12.8042 3.27132 12.4102 3.00001 11.943 3.00001H7.18855C6.96066 2.99914 6.74052 3.06281 6.57113 3.17858C6.40174 3.29435 6.29525 3.45392 6.27246 3.62611Z" fill="#149372"/>
<path d="M13.1661 7.34795C9.56351 7.34781 5.96094 7.34795 5.96094 7.34795C5.96094 7.34795 5.96094 11.6958 9.56351 11.6958C13.1661 11.6959 13.1661 7.34795 13.1661 7.34795Z" fill="#149372"/>
<path d="M8.95182 4.66667H8.28516V5.33333H8.95182V6H9.61849V5.33333H10.2852V4.66667H9.61849V4H8.95182V4.66667Z" fill="white"/>
</svg>
