<svg width="20" height="23" viewBox="0 0 20 23" fill="none" xmlns="http://www.w3.org/2000/svg">
<path d="M18.4791 9.18688C18.7941 8.8719 18.571 8.33333 18.1256 8.33333H13.9993V1.33333C13.9993 0.781043 13.5516 0.333328 12.9993 0.333328H6.99935C6.44706 0.333328 5.99935 0.781044 5.99935 1.33333V8.33333H1.87312C1.42767 8.33333 1.20459 8.8719 1.51957 9.18688L9.6458 17.3131C9.84106 17.5084 10.1576 17.5084 10.3529 17.3131L18.4791 9.18688ZM1.66601 20.3333C1.11373 20.3333 0.666016 20.781 0.666016 21.3333V22C0.666016 22.5523 1.11373 23 1.66602 23H18.3327C18.885 23 19.3327 22.5523 19.3327 22V21.3333C19.3327 20.781 18.885 20.3333 18.3327 20.3333H1.66601Z" fill="#149372"/>
</svg>
