<svg width="24" height="24" viewBox="0 0 24 24" fill="none" xmlns="http://www.w3.org/2000/svg">
<path d="M11.8764 10.1053L14.1818 12.2674V12.1579C14.1818 11.6135 13.9519 11.0914 13.5428 10.7065C13.1336 10.3215 12.5787 10.1053 12 10.1053H11.8764ZM8.74909 10.6526L9.87636 11.7132C9.84 11.8568 9.81818 12.0005 9.81818 12.1579C9.81818 12.7023 10.0481 13.2244 10.4572 13.6093C10.8664 13.9943 11.4213 14.2105 12 14.2105C12.16 14.2105 12.32 14.19 12.4727 14.1558L13.6 15.2163C13.1127 15.4421 12.5745 15.5789 12 15.5789C11.0356 15.5789 10.1107 15.2185 9.4287 14.5769C8.74675 13.9354 8.36364 13.0652 8.36364 12.1579C8.36364 11.6174 8.50909 11.1111 8.74909 10.6526ZM4.72727 6.86895L6.38545 8.42895L6.71273 8.73684C5.51273 9.62632 4.56727 10.7895 4 12.1579C5.25818 15.1616 8.36364 17.2895 12 17.2895C13.1273 17.2895 14.2036 17.0842 15.1855 16.7147L15.4982 17.0021L17.6218 19L18.5455 18.1311L5.65091 6L4.72727 6.86895ZM12 8.73684C12.9644 8.73684 13.8893 9.09727 14.5713 9.73885C15.2532 10.3804 15.6364 11.2506 15.6364 12.1579C15.6364 12.5958 15.5418 13.02 15.3745 13.4032L17.5055 15.4079C18.5964 14.5526 19.4691 13.4305 20 12.1579C18.7418 9.15421 15.6364 7.02632 12 7.02632C10.9818 7.02632 10.0073 7.19737 9.09091 7.50526L10.6691 8.97632C11.0836 8.82579 11.5273 8.73684 12 8.73684Z" fill="#A3A9AB"/>
</svg>
