<svg width="16" height="13" viewBox="0 0 16 13" fill="none" xmlns="http://www.w3.org/2000/svg">
<path d="M7.87636 4.10526L10.1818 6.26737V6.1579C10.1818 5.6135 9.95195 5.09141 9.54278 4.70646C9.13361 4.32152 8.57865 4.10526 8 4.10526H7.87636ZM4.74909 4.65263L5.87636 5.71316C5.84 5.85684 5.81818 6.00053 5.81818 6.1579C5.81818 6.70229 6.04805 7.22438 6.45722 7.60932C6.86639 7.99427 7.42135 8.21053 8 8.21053C8.16 8.21053 8.32 8.19 8.47273 8.15579L9.6 9.21632C9.11273 9.44211 8.57455 9.57895 8 9.57895C7.03558 9.57895 6.11065 9.21852 5.4287 8.57694C4.74675 7.93537 4.36364 7.06521 4.36364 6.1579C4.36364 5.61737 4.50909 5.11105 4.74909 4.65263ZM0.727273 0.868947L2.38545 2.42895L2.71273 2.73684C1.51273 3.62632 0.567273 4.78947 0 6.1579C1.25818 9.16158 4.36364 11.2895 8 11.2895C9.12727 11.2895 10.2036 11.0842 11.1855 10.7147L11.4982 11.0021L13.6218 13L14.5455 12.1311L1.65091 0L0.727273 0.868947ZM8 2.73684C8.96442 2.73684 9.88935 3.09727 10.5713 3.73885C11.2532 4.38042 11.6364 5.25058 11.6364 6.1579C11.6364 6.59579 11.5418 7.02 11.3745 7.40316L13.5055 9.4079C14.5964 8.55263 15.4691 7.43053 16 6.1579C14.7418 3.15421 11.6364 1.02632 8 1.02632C6.98182 1.02632 6.00727 1.19737 5.09091 1.50526L6.66909 2.97632C7.08364 2.82579 7.52727 2.73684 8 2.73684Z" fill="#149372"/>
</svg>
