<svg width="24" height="24" viewBox="0 0 24 24" fill="none" xmlns="http://www.w3.org/2000/svg">
<path d="M12 10.3C11.4213 10.3 10.8664 10.5318 10.4572 10.9444C10.0481 11.3569 9.81818 11.9165 9.81818 12.5C9.81818 13.0835 10.0481 13.6431 10.4572 14.0556C10.8664 14.4682 11.4213 14.7 12 14.7C12.5787 14.7 13.1336 14.4682 13.5428 14.0556C13.9519 13.6431 14.1818 13.0835 14.1818 12.5C14.1818 11.9165 13.9519 11.3569 13.5428 10.9444C13.1336 10.5318 12.5787 10.3 12 10.3ZM12 16.1667C11.0356 16.1667 10.1107 15.7804 9.4287 15.0927C8.74675 14.4051 8.36364 13.4725 8.36364 12.5C8.36364 11.5275 8.74675 10.5949 9.4287 9.90728C10.1107 9.21964 11.0356 8.83333 12 8.83333C12.9644 8.83333 13.8893 9.21964 14.5713 9.90728C15.2532 10.5949 15.6364 11.5275 15.6364 12.5C15.6364 13.4725 15.2532 14.4051 14.5713 15.0927C13.8893 15.7804 12.9644 16.1667 12 16.1667ZM12 7C8.36364 7 5.25818 9.28067 4 12.5C5.25818 15.7193 8.36364 18 12 18C15.6364 18 18.7418 15.7193 20 12.5C18.7418 9.28067 15.6364 7 12 7Z" fill="#A3A9AB"/>
</svg>
