<svg width="24" height="24" viewBox="0 0 24 24" fill="none" xmlns="http://www.w3.org/2000/svg">
<path fill-rule="evenodd" clip-rule="evenodd" d="M11.5446 11.987L6.32714 6.7581L6.10066 6.53112C6.10066 6.53112 5.87418 6.32576 6.10066 6.10579C6.32714 5.88581 6.55363 6.07715 6.55363 6.07715L6.78011 6.30413L11.9976 11.5331L17.2164 6.30278L17.4429 6.0758C17.4429 6.0758 17.6953 5.91319 17.8959 6.13166C18.0964 6.35013 17.8959 6.52977 17.8959 6.52977L17.6694 6.75675L12.4506 11.987L17.6702 17.2182L17.8967 17.4452C17.8967 17.4452 18.1291 17.6721 17.8967 17.8991C17.6644 18.1261 17.4438 17.8991 17.4438 17.8991L17.2173 17.6721L11.9976 12.441L6.77926 17.6708L6.55277 17.8978C6.55277 17.8978 6.28989 18.0743 6.0998 17.8978C5.90971 17.7212 6.0998 17.4438 6.0998 17.4438L6.32629 17.2168L11.5446 11.987Z" fill="#E1E2E6"/>
<path d="M6.32714 6.7581L6.68109 6.40493L6.68109 6.40493L6.32714 6.7581ZM11.5446 11.987L11.8986 12.3402L12.251 11.987L11.8986 11.6339L11.5446 11.987ZM6.10066 6.53112L6.4546 6.17795L6.44577 6.1691L6.43651 6.16071L6.10066 6.53112ZM6.10066 6.10579L6.44902 6.46446L6.10066 6.10579ZM6.55363 6.07715L6.90757 5.72399L6.89255 5.70894L6.87631 5.69521L6.55363 6.07715ZM6.78011 6.30413L7.13406 5.95097V5.95097L6.78011 6.30413ZM11.9976 11.5331L11.6437 11.8862L11.9976 12.241L12.3515 11.8862L11.9976 11.5331ZM17.2164 6.30278L16.8625 5.94962L16.8625 5.94962L17.2164 6.30278ZM17.4429 6.0758L17.1721 5.65547L17.1269 5.68458L17.089 5.72264L17.4429 6.0758ZM17.8959 6.13166L17.5275 6.46978L17.5275 6.46978L17.8959 6.13166ZM17.8959 6.52977L17.5623 6.15734L17.5518 6.16668L17.5419 6.1766L17.8959 6.52977ZM17.6694 6.75675L18.0233 7.10991L18.0233 7.10991L17.6694 6.75675ZM12.4506 11.987L12.0966 11.6339L11.7442 11.987L12.0966 12.3402L12.4506 11.987ZM17.6702 17.2182L17.3163 17.5713H17.3163L17.6702 17.2182ZM17.8967 17.4452L17.5428 17.7984L17.5473 17.8028L17.8967 17.4452ZM17.8967 17.8991L17.5473 17.5415L17.5473 17.5415L17.8967 17.8991ZM17.4438 17.8991L17.8023 17.5506L17.7977 17.546L17.4438 17.8991ZM17.2173 17.6721L16.8633 18.0253L16.8633 18.0253L17.2173 17.6721ZM11.9976 12.441L12.3515 12.0878L11.9976 11.7331L11.6437 12.0878L11.9976 12.441ZM6.77926 17.6708L7.1332 18.024H7.1332L6.77926 17.6708ZM6.55277 17.8978L6.83156 18.3128L6.87216 18.2856L6.90671 18.2509L6.55277 17.8978ZM6.0998 17.8978L6.44008 17.5314L6.44008 17.5314L6.0998 17.8978ZM6.0998 17.4438L5.74586 17.0906L5.71336 17.1232L5.68735 17.1612L6.0998 17.4438ZM6.32629 17.2168L5.97235 16.8637L5.97234 16.8637L6.32629 17.2168ZM5.9732 7.11126L11.1907 12.3402L11.8986 11.6339L6.68109 6.40493L5.9732 7.11126ZM5.74672 6.88428L5.9732 7.11126L6.68109 6.40493L6.4546 6.17795L5.74672 6.88428ZM5.7523 5.74712C5.63572 5.86034 5.55014 5.9999 5.51594 6.16157C5.48221 6.32099 5.50668 6.46281 5.54515 6.56993C5.58253 6.67403 5.63551 6.75304 5.67453 6.80307C5.69487 6.82916 5.71382 6.85042 5.72911 6.86649C5.73682 6.8746 5.74379 6.88158 5.74977 6.88739C5.75277 6.8903 5.75554 6.89294 5.75805 6.89529C5.7593 6.89647 5.7605 6.89758 5.76162 6.89862C5.76219 6.89914 5.76273 6.89964 5.76327 6.90012C5.76353 6.90037 5.76379 6.9006 5.76405 6.90084C5.76418 6.90095 5.76437 6.90113 5.76443 6.90118C5.76462 6.90136 5.76481 6.90153 6.10066 6.53112C6.43651 6.16071 6.4367 6.16088 6.43688 6.16104C6.43694 6.1611 6.43713 6.16127 6.43725 6.16138C6.43749 6.1616 6.43773 6.16182 6.43797 6.16204C6.43845 6.16247 6.43891 6.1629 6.43937 6.16332C6.44028 6.16416 6.44115 6.16497 6.44199 6.16575C6.44365 6.16731 6.44518 6.16877 6.44657 6.17012C6.44935 6.17282 6.45167 6.17518 6.45363 6.17724C6.45742 6.18122 6.46044 6.18472 6.46309 6.18811C6.46672 6.19277 6.47723 6.20669 6.48631 6.23195C6.49646 6.26023 6.50678 6.30947 6.49429 6.36853C6.48132 6.42982 6.45236 6.46121 6.44902 6.46446L5.7523 5.74712ZM6.55363 6.07715C6.87631 5.69521 6.87611 5.69504 6.87591 5.69488C6.87584 5.69482 6.87564 5.69465 6.8755 5.69453C6.87523 5.6943 6.87495 5.69407 6.87467 5.69384C6.87411 5.69336 6.87352 5.69288 6.87292 5.69238C6.87172 5.69138 6.87044 5.69032 6.86909 5.68922C6.86638 5.68701 6.86338 5.6846 6.86007 5.682C6.85348 5.67682 6.84564 5.67085 6.83661 5.66432C6.81868 5.65134 6.79541 5.63565 6.7673 5.61919C6.71261 5.58718 6.63114 5.5473 6.52852 5.52273C6.29811 5.46755 6.00318 5.50344 5.7523 5.74712L6.44902 6.46446C6.44921 6.46427 6.4438 6.46951 6.43199 6.47622C6.41997 6.48304 6.40437 6.48964 6.38588 6.49417C6.34778 6.5035 6.3153 6.49994 6.29563 6.49523C6.27795 6.491 6.26725 6.48521 6.2621 6.48219C6.25877 6.48024 6.25496 6.47778 6.2503 6.4744C6.24791 6.47267 6.24516 6.4706 6.24199 6.46811C6.2404 6.46686 6.23869 6.4655 6.23686 6.464C6.23594 6.46325 6.23499 6.46247 6.23401 6.46165C6.23352 6.46125 6.23301 6.46083 6.23251 6.4604C6.23225 6.46019 6.23199 6.45997 6.23174 6.45975C6.23161 6.45965 6.23141 6.45948 6.23134 6.45943C6.23115 6.45926 6.23095 6.45909 6.55363 6.07715ZM7.13406 5.95097L6.90757 5.72399L6.19969 6.43032L6.42617 6.6573L7.13406 5.95097ZM12.3515 11.1799L7.13406 5.95097L6.42617 6.6573L11.6437 11.8862L12.3515 11.1799ZM12.3515 11.8862L17.5704 6.65595L16.8625 5.94962L11.6437 11.1799L12.3515 11.8862ZM17.5704 6.65595L17.7968 6.42897L17.089 5.72264L16.8625 5.94962L17.5704 6.65595ZM17.4429 6.0758C17.7137 6.49613 17.7135 6.49626 17.7133 6.49639C17.7132 6.49643 17.713 6.49656 17.7129 6.49664C17.7126 6.49681 17.7124 6.49698 17.7121 6.49714C17.7116 6.49747 17.7111 6.49778 17.7106 6.49809C17.7096 6.49871 17.7087 6.4993 17.7078 6.49986C17.706 6.50098 17.7044 6.50198 17.7029 6.50288C17.6999 6.50466 17.6974 6.50606 17.6955 6.50714C17.6916 6.50926 17.6891 6.51047 17.6874 6.51121C17.6856 6.51203 17.68 6.51451 17.669 6.51618C17.657 6.51799 17.6309 6.51984 17.5975 6.50989C17.5605 6.49883 17.5367 6.47973 17.5275 6.46978L18.2642 5.79354C18.0276 5.53574 17.7338 5.49498 17.5194 5.52743C17.4202 5.54244 17.339 5.57193 17.2835 5.5964C17.2551 5.60898 17.2312 5.62118 17.2128 5.63134C17.2035 5.63645 17.1955 5.64112 17.1887 5.64518C17.1853 5.64722 17.1822 5.6491 17.1795 5.65082C17.1781 5.65168 17.1768 5.6525 17.1756 5.65328C17.1749 5.65367 17.1744 5.65404 17.1738 5.65441C17.1735 5.65459 17.1732 5.65477 17.1729 5.65495C17.1728 5.65504 17.1726 5.65517 17.1725 5.65521C17.1723 5.65534 17.1721 5.65547 17.4429 6.0758ZM17.5275 6.46978C17.5249 6.46688 17.5009 6.4381 17.49 6.38297C17.4793 6.32879 17.4875 6.28098 17.4987 6.24868C17.5088 6.21956 17.5216 6.20134 17.5286 6.19236C17.5327 6.187 17.5372 6.18183 17.5423 6.17653C17.5449 6.17382 17.5478 6.17091 17.551 6.16776C17.5527 6.16618 17.5544 6.16453 17.5563 6.1628C17.5572 6.16193 17.5582 6.16105 17.5592 6.16014C17.5597 6.15968 17.5602 6.15922 17.5607 6.15875C17.5609 6.15852 17.5612 6.15829 17.5615 6.15805C17.5616 6.15793 17.5618 6.15775 17.5619 6.15769C17.5621 6.15752 17.5623 6.15734 17.8959 6.52977C18.2295 6.9022 18.2297 6.90202 18.2299 6.90184C18.23 6.90177 18.2302 6.90159 18.2303 6.90147C18.2306 6.90122 18.2308 6.90097 18.2311 6.90071C18.2317 6.9002 18.2323 6.89968 18.2329 6.89914C18.2341 6.89805 18.2353 6.8969 18.2366 6.89569C18.2392 6.89327 18.2421 6.89058 18.2451 6.88763C18.2512 6.88175 18.2582 6.87477 18.2659 6.86671C18.2812 6.85074 18.2997 6.82983 18.3196 6.8042C18.3578 6.75472 18.4083 6.67794 18.4434 6.5766C18.4797 6.47207 18.5005 6.3384 18.471 6.18908C18.4413 6.03883 18.3671 5.90567 18.2642 5.79353L17.5275 6.46978ZM17.5419 6.1766L17.3154 6.40358L18.0233 7.10991L18.2498 6.88293L17.5419 6.1766ZM17.3154 6.40358L12.0966 11.6339L12.8045 12.3402L18.0233 7.10991L17.3154 6.40358ZM18.0242 16.865L12.8045 11.6339L12.0966 12.3402L17.3163 17.5713L18.0242 16.865ZM18.2507 17.092L18.0242 16.865L17.3163 17.5713L17.5428 17.7983L18.2507 17.092ZM18.2461 18.2568C18.3667 18.139 18.4513 17.9955 18.4846 17.8327C18.5172 17.6736 18.4934 17.5321 18.4571 17.4255C18.4215 17.3212 18.3708 17.2408 18.333 17.189C18.3134 17.1622 18.295 17.1402 18.2803 17.1235C18.2728 17.1151 18.2661 17.1079 18.2604 17.1019C18.2575 17.0989 18.2549 17.0962 18.2525 17.0938C18.2513 17.0926 18.2502 17.0915 18.2491 17.0904C18.2486 17.0899 18.2481 17.0894 18.2476 17.0889C18.2473 17.0887 18.2471 17.0884 18.2468 17.0882C18.2467 17.0881 18.2465 17.0879 18.2465 17.0878C18.2463 17.0877 18.2461 17.0875 17.8967 17.4452C17.5473 17.8028 17.5472 17.8027 17.547 17.8025C17.5469 17.8024 17.5468 17.8023 17.5466 17.8021C17.5464 17.8019 17.5462 17.8017 17.546 17.8015C17.5455 17.801 17.5451 17.8006 17.5447 17.8002C17.5438 17.7994 17.543 17.7986 17.5423 17.7978C17.5408 17.7963 17.5394 17.7949 17.5382 17.7936C17.5357 17.791 17.5338 17.7889 17.5322 17.7872C17.5293 17.7838 17.5273 17.7813 17.5258 17.7793C17.5243 17.7772 17.5172 17.7677 17.5107 17.7485C17.5033 17.7271 17.4941 17.6849 17.5049 17.6321C17.5165 17.5758 17.543 17.5457 17.5473 17.5415L18.2461 18.2568ZM17.4438 17.8991C17.0852 18.2476 17.0854 18.2478 17.0856 18.248C17.0856 18.248 17.0858 18.2482 17.0859 18.2483C17.0862 18.2486 17.0864 18.2488 17.0867 18.2491C17.0872 18.2496 17.0877 18.2501 17.0882 18.2507C17.0893 18.2518 17.0905 18.2529 17.0917 18.2541C17.0941 18.2566 17.0968 18.2593 17.0999 18.2622C17.1059 18.268 17.1132 18.2747 17.1216 18.2822C17.1383 18.2971 17.1603 18.3154 17.1872 18.335C17.2391 18.3729 17.3194 18.423 17.4234 18.4581C17.5299 18.4939 17.6692 18.5164 17.8257 18.4852C17.9851 18.4534 18.1273 18.3728 18.2461 18.2568L17.5473 17.5415C17.55 17.5389 17.5775 17.515 17.6302 17.5045C17.6799 17.4946 17.7205 17.5029 17.7428 17.5104C17.7627 17.5171 17.7732 17.5247 17.7765 17.5271C17.7791 17.529 17.7821 17.5313 17.7858 17.5347C17.7877 17.5364 17.79 17.5385 17.7927 17.5411C17.7941 17.5424 17.7955 17.5438 17.7971 17.5454C17.7979 17.5462 17.7988 17.547 17.7996 17.5479C17.8001 17.5483 17.8005 17.5488 17.8009 17.5492C17.8012 17.5495 17.8014 17.5497 17.8016 17.5499C17.8017 17.55 17.8019 17.5502 17.802 17.5503C17.8021 17.5505 17.8023 17.5506 17.4438 17.8991ZM16.8633 18.0253L17.0898 18.2523L17.7977 17.546L17.5712 17.319L16.8633 18.0253ZM11.6437 12.7942L16.8633 18.0253L17.5712 17.319L12.3515 12.0878L11.6437 12.7942ZM11.6437 12.0878L6.42531 17.3176L7.1332 18.024L12.3515 12.7942L11.6437 12.0878ZM6.42532 17.3176L6.19883 17.5446L6.90671 18.2509L7.1332 18.024L6.42532 17.3176ZM6.55277 17.8978C6.27398 17.4827 6.27414 17.4826 6.2743 17.4825C6.27436 17.4825 6.27451 17.4823 6.27462 17.4823C6.27483 17.4821 6.27503 17.482 6.27524 17.4819C6.27564 17.4816 6.27604 17.4813 6.27642 17.4811C6.27718 17.4806 6.2779 17.4801 6.27857 17.4797C6.27991 17.4788 6.28106 17.4781 6.28204 17.4774C6.284 17.4762 6.28531 17.4754 6.28605 17.475C6.28743 17.4741 6.287 17.4744 6.28529 17.4753C6.28033 17.4778 6.27695 17.4787 6.27783 17.4785C6.27801 17.4785 6.29747 17.4733 6.3303 17.4786C6.36936 17.4849 6.41005 17.5035 6.44008 17.5314L5.75952 18.2641C6.02544 18.5111 6.33895 18.4934 6.51731 18.4494C6.60767 18.4271 6.68189 18.395 6.73216 18.3699C6.75806 18.357 6.77965 18.3449 6.79616 18.3351C6.80445 18.3301 6.8116 18.3257 6.8175 18.322C6.82045 18.3201 6.82311 18.3184 6.82545 18.3169C6.82663 18.3161 6.82772 18.3154 6.82874 18.3147C6.82925 18.3144 6.82974 18.3141 6.83021 18.3137C6.83044 18.3136 6.83067 18.3134 6.8309 18.3133C6.83101 18.3132 6.83118 18.3131 6.83123 18.3131C6.8314 18.3129 6.83156 18.3128 6.55277 17.8978ZM6.44008 17.5314C6.47753 17.5662 6.5034 17.6164 6.5121 17.666C6.51582 17.6873 6.51562 17.7038 6.51488 17.7138C6.51414 17.7236 6.51271 17.7293 6.51244 17.7304C6.51227 17.731 6.51372 17.7263 6.51735 17.7193C6.5187 17.7167 6.5195 17.7154 6.51911 17.716C6.51888 17.7164 6.51828 17.7174 6.51719 17.7191C6.51664 17.7199 6.51597 17.7209 6.51515 17.7222C6.51474 17.7228 6.5143 17.7234 6.51381 17.7241C6.51357 17.7245 6.51332 17.7249 6.51306 17.7253C6.51293 17.7255 6.5128 17.7256 6.51266 17.7258C6.5126 17.7259 6.51249 17.7261 6.51246 17.7261C6.51235 17.7263 6.51225 17.7264 6.0998 17.4438C5.68735 17.1612 5.68725 17.1613 5.68714 17.1615C5.6871 17.1615 5.68699 17.1617 5.68692 17.1618C5.68677 17.162 5.68662 17.1622 5.68647 17.1625C5.68616 17.1629 5.68584 17.1634 5.68551 17.1639C5.68485 17.1648 5.68413 17.1659 5.68337 17.1671C5.68185 17.1693 5.68013 17.1719 5.67824 17.1749C5.67446 17.1807 5.66995 17.1878 5.6649 17.1961C5.65485 17.2126 5.64229 17.2344 5.62879 17.2605C5.60271 17.311 5.56852 17.3867 5.54459 17.4788C5.4981 17.6577 5.47283 17.9978 5.75952 18.2641L6.44008 17.5314ZM6.45374 17.797L6.68023 17.57L5.97234 16.8637L5.74586 17.0906L6.45374 17.797ZM6.68023 17.57L11.8986 12.3402L11.1907 11.6339L5.97235 16.8637L6.68023 17.57Z" fill="#E1E2E6"/>
</svg>
