<svg width="22" height="22" viewBox="0 0 22 22" fill="none" xmlns="http://www.w3.org/2000/svg">
<path fill-rule="evenodd" clip-rule="evenodd" d="M10.7615 11L8.01584 8.25428L7.8967 8.13514C7.8967 8.13514 7.77756 8.02736 7.8967 7.91189C8.01584 7.79643 8.13498 7.89687 8.13498 7.89687L8.25412 8.016L10.9998 10.7617L13.7449 8.01657L13.864 7.89743C13.864 7.89743 13.9968 7.81208 14.1023 7.92675C14.2078 8.04142 14.1023 8.13571 14.1023 8.13571L13.9832 8.25485L11.2381 11L13.9827 13.7446L14.1018 13.8637C14.1018 13.8637 14.2241 13.9829 14.1018 14.102C13.9796 14.2211 13.8636 14.102 13.8636 14.102L13.7444 13.9829L10.9998 11.2382L8.25462 13.9834L8.13548 14.1026C8.13548 14.1026 7.99719 14.1952 7.8972 14.1026C7.7972 14.0099 7.8972 13.8643 7.8972 13.8643L8.01634 13.7451L10.7615 11Z" fill="#3E3E3E"/>
<path d="M8.01584 8.25428L8.36939 7.90073L8.36939 7.90073L8.01584 8.25428ZM10.7615 11L11.1151 11.3535L11.4686 11L11.1151 10.6464L10.7615 11ZM7.8967 8.13514L8.25025 7.78159L8.24142 7.77275L8.23215 7.76437L7.8967 8.13514ZM7.8967 7.91189L8.24467 8.27095V8.27094L7.8967 7.91189ZM8.13498 7.89687L8.48853 7.54331L8.4735 7.52828L8.45724 7.51458L8.13498 7.89687ZM8.25412 8.016L8.60767 7.66245L8.60767 7.66245L8.25412 8.016ZM10.9998 10.7617L10.6462 11.1152L10.9998 11.4688L11.3534 11.1152L10.9998 10.7617ZM13.7449 8.01657L13.3914 7.66302V7.66302L13.7449 8.01657ZM13.864 7.89743L13.5937 7.47683L13.5485 7.50588L13.5105 7.54388L13.864 7.89743ZM14.1023 7.92675L14.4703 7.58822L14.4703 7.58822L14.1023 7.92675ZM14.1023 8.13571L13.7691 7.76292L13.7587 7.77225L13.7488 7.78215L14.1023 8.13571ZM13.9832 8.25485L13.6296 7.90129V7.90129L13.9832 8.25485ZM11.2381 11L10.8845 10.6464L10.531 11L10.8845 11.3535L11.2381 11ZM13.9827 13.7446L14.3362 13.391V13.391L13.9827 13.7446ZM14.1018 13.8637L13.7482 14.2173L13.7528 14.2218L14.1018 13.8637ZM13.8636 14.102L14.2217 13.7531L14.2171 13.7484L13.8636 14.102ZM13.7444 13.9829L13.3909 14.3364L13.3909 14.3364L13.7444 13.9829ZM10.9998 11.2382L11.3534 10.8847L10.9998 10.5311L10.6462 10.8847L10.9998 11.2382ZM8.25462 13.9834L7.90106 13.6299L7.90106 13.6299L8.25462 13.9834ZM8.13548 14.1026L8.41384 14.5179L8.45446 14.4907L8.48903 14.4561L8.13548 14.1026ZM7.8972 13.8643L7.54365 13.5107L7.5111 13.5433L7.48504 13.5812L7.8972 13.8643ZM8.01634 13.7451L8.36989 14.0987H8.36989L8.01634 13.7451ZM7.66229 8.60783L10.408 11.3535L11.1151 10.6464L8.36939 7.90073L7.66229 8.60783ZM7.54315 8.4887L7.66229 8.60783L8.36939 7.90073L8.25025 7.78159L7.54315 8.4887ZM7.54873 7.55284C7.45894 7.63986 7.38658 7.75375 7.35731 7.89179C7.32852 8.02761 7.34972 8.14764 7.38156 8.23613C7.41232 8.32159 7.45533 8.38516 7.48599 8.42439C7.50216 8.44509 7.51735 8.46212 7.52993 8.47531C7.53629 8.48197 7.54216 8.48785 7.54739 8.49292C7.55 8.49546 7.55248 8.49781 7.55479 8.49997C7.55595 8.50106 7.55707 8.50209 7.55814 8.50308C7.55868 8.50358 7.55921 8.50406 7.55973 8.50453C7.55999 8.50477 7.56024 8.505 7.5605 8.50523C7.56062 8.50535 7.56081 8.50552 7.56088 8.50558C7.56106 8.50575 7.56125 8.50592 7.8967 8.13514C8.23215 7.76437 8.23234 7.76454 8.23252 7.7647C8.23258 7.76476 8.23277 7.76493 8.23289 7.76504C8.23314 7.76526 8.23338 7.76549 8.23363 7.76571C8.23412 7.76616 8.2346 7.7666 8.23509 7.76705C8.23605 7.76793 8.237 7.76881 8.23793 7.76969C8.2398 7.77143 8.24162 7.77317 8.2434 7.77489C8.24694 7.77832 8.25037 7.78177 8.2537 7.78526C8.26022 7.79211 8.26704 7.79982 8.2739 7.8086C8.28595 7.82401 8.30662 7.85343 8.32248 7.8975C8.33944 7.94461 8.35319 8.01605 8.33557 8.09918C8.31747 8.18454 8.27489 8.24166 8.24467 8.27095L7.54873 7.55284ZM8.13498 7.89687C8.45724 7.51458 8.45704 7.51441 8.45685 7.51424C8.45678 7.51418 8.45658 7.51402 8.45644 7.5139C8.45617 7.51368 8.4559 7.51345 8.45562 7.51322C8.45507 7.51276 8.45451 7.51229 8.45393 7.51181C8.45278 7.51086 8.45158 7.50987 8.45033 7.50885C8.44783 7.50682 8.44513 7.50465 8.44223 7.50238C8.43645 7.49784 8.42981 7.49281 8.42236 7.48743C8.40757 7.47675 8.38892 7.46422 8.36669 7.45123C8.32375 7.42615 8.2591 7.39446 8.17672 7.37477C7.98697 7.32943 7.74599 7.36168 7.54873 7.55284L8.24467 8.27094C8.21605 8.29868 8.16831 8.33056 8.10285 8.34655C8.03976 8.36196 7.98399 8.35687 7.94431 8.34739C7.90661 8.33838 7.87919 8.32458 7.86231 8.31472C7.85312 8.30935 7.8447 8.30376 7.83689 8.29812C7.83293 8.29526 7.82897 8.29227 7.82499 8.28915C7.82299 8.28758 7.82097 8.28597 7.81893 8.28431C7.81791 8.28348 7.81688 8.28263 7.81585 8.28178C7.81533 8.28135 7.81481 8.28091 7.81429 8.28048C7.81403 8.28026 7.81376 8.28004 7.8135 8.27982C7.81337 8.27971 7.81317 8.27954 7.81311 8.27949C7.81291 8.27932 7.81271 8.27915 8.13498 7.89687ZM8.60767 7.66245L8.48853 7.54331L7.78142 8.25042L7.90056 8.36956L8.60767 7.66245ZM11.3534 10.4081L8.60767 7.66245L7.90056 8.36956L10.6462 11.1152L11.3534 10.4081ZM11.3534 11.1152L14.0985 8.37012L13.3914 7.66302L10.6462 10.4081L11.3534 11.1152ZM14.0985 8.37012L14.2176 8.25098L13.5105 7.54388L13.3914 7.66302L14.0985 8.37012ZM13.864 7.89743C14.1344 8.31803 14.1342 8.31816 14.134 8.31829C14.1339 8.31833 14.1337 8.31846 14.1336 8.31854C14.1333 8.31871 14.1331 8.31888 14.1328 8.31905C14.1323 8.31938 14.1318 8.31971 14.1313 8.32004C14.1302 8.3207 14.1292 8.32134 14.1282 8.32197C14.1262 8.32322 14.1242 8.32443 14.1222 8.32559C14.1184 8.32791 14.1146 8.33008 14.1109 8.33211C14.1036 8.33612 14.096 8.33992 14.088 8.34345C14.0735 8.34985 14.05 8.35869 14.0183 8.36348C13.9855 8.36843 13.9357 8.3702 13.8779 8.353C13.8164 8.3347 13.7673 8.30112 13.7344 8.26527L14.4703 7.58822C14.2811 7.38256 14.0412 7.34868 13.869 7.37469C13.7908 7.38649 13.7276 7.4095 13.6849 7.42832C13.6628 7.43806 13.644 7.44763 13.629 7.45586C13.6215 7.46001 13.6148 7.4639 13.6089 7.46741C13.606 7.46917 13.6032 7.47084 13.6007 7.47241C13.5994 7.4732 13.5982 7.47396 13.597 7.4747C13.5965 7.47507 13.5959 7.47543 13.5953 7.47578C13.595 7.47596 13.5948 7.47614 13.5945 7.47631C13.5944 7.4764 13.5942 7.47653 13.5941 7.47657C13.5939 7.4767 13.5937 7.47683 13.864 7.89743ZM13.7344 8.26527C13.7079 8.23648 13.6718 8.18285 13.6564 8.10493C13.6411 8.02792 13.6524 7.95952 13.6696 7.90995C13.6858 7.86358 13.7076 7.83142 13.722 7.81284C13.7299 7.80267 13.7377 7.79377 13.7452 7.78595C13.749 7.78197 13.7529 7.7781 13.7568 7.77431C13.7588 7.77241 13.7608 7.77051 13.7629 7.76862C13.7639 7.76767 13.7649 7.76672 13.766 7.76577C13.7665 7.7653 13.767 7.76482 13.7675 7.76435C13.7678 7.76411 13.7681 7.76387 13.7683 7.76363C13.7685 7.76351 13.7687 7.76333 13.7687 7.76327C13.7689 7.76309 13.7691 7.76292 14.1023 8.13571C14.4355 8.5085 14.4357 8.50832 14.4359 8.50814C14.436 8.50808 14.4362 8.5079 14.4363 8.50778C14.4366 8.50753 14.4369 8.50729 14.4372 8.50704C14.4377 8.50654 14.4383 8.50603 14.4389 8.50551C14.44 8.50447 14.4412 8.50338 14.4424 8.50225C14.4448 8.49999 14.4474 8.49755 14.4501 8.49494C14.4556 8.48971 14.4616 8.4837 14.4681 8.47692C14.4809 8.46349 14.4962 8.44633 14.5123 8.42552C14.5432 8.38568 14.5848 8.32278 14.6141 8.23851C14.6446 8.15103 14.6624 8.03756 14.6373 7.91062C14.612 7.78277 14.5495 7.67435 14.4703 7.58822L13.7344 8.26527ZM13.7488 7.78215L13.6296 7.90129L14.3367 8.6084L14.4559 8.48926L13.7488 7.78215ZM13.6296 7.90129L10.8845 10.6464L11.5916 11.3535L14.3367 8.6084L13.6296 7.90129ZM14.3362 13.391L11.5916 10.6464L10.8845 11.3535L13.6291 14.0981L14.3362 13.391ZM14.4554 13.5102L14.3362 13.391L13.6291 14.0981L13.7483 14.2173L14.4554 13.5102ZM14.4508 14.46C14.5439 14.3693 14.6149 14.2527 14.6432 14.115C14.6707 13.9809 14.6503 13.8628 14.6208 13.7764C14.592 13.6922 14.5516 13.6286 14.5223 13.5887C14.5069 13.5677 14.4925 13.5503 14.4805 13.5368C14.4745 13.53 14.4689 13.524 14.4639 13.5189C14.4614 13.5163 14.4591 13.5139 14.4569 13.5117C14.4558 13.5106 14.4548 13.5095 14.4537 13.5085C14.4532 13.508 14.4527 13.5075 14.4523 13.5071C14.452 13.5068 14.4518 13.5066 14.4515 13.5064C14.4514 13.5062 14.4512 13.5061 14.4512 13.506C14.451 13.5058 14.4508 13.5057 14.1018 13.8637C13.7528 14.2218 13.7527 14.2216 13.7525 14.2214C13.7524 14.2214 13.7522 14.2212 13.7521 14.2211C13.7519 14.2209 13.7517 14.2206 13.7514 14.2204C13.751 14.22 13.7505 14.2195 13.7501 14.2191C13.7492 14.2182 13.7483 14.2173 13.7474 14.2164C13.7457 14.2147 13.744 14.213 13.7424 14.2113C13.7392 14.2079 13.7361 14.2046 13.7332 14.2013C13.7274 14.1948 13.7215 14.1877 13.7157 14.1797C13.7056 14.1659 13.6881 14.1395 13.6746 14.1C13.6603 14.0582 13.6475 13.9923 13.6636 13.914C13.6804 13.8321 13.7209 13.7751 13.7528 13.7439L14.4508 14.46ZM13.8636 14.102C13.5054 14.4509 13.5056 14.4511 13.5057 14.4512C13.5058 14.4513 13.506 14.4515 13.5061 14.4516C13.5063 14.4518 13.5066 14.4521 13.5068 14.4523C13.5073 14.4528 13.5078 14.4533 13.5083 14.4539C13.5094 14.4549 13.5104 14.456 13.5115 14.4571C13.5138 14.4593 13.5162 14.4617 13.5189 14.4642C13.5241 14.4693 13.5302 14.4749 13.5371 14.481C13.5507 14.4931 13.5682 14.5076 13.5894 14.523C13.6298 14.5524 13.6935 14.5923 13.7775 14.6206C13.8639 14.6497 13.9797 14.6687 14.1106 14.6426C14.2445 14.616 14.3595 14.5491 14.4508 14.46L13.7528 13.7439C13.7831 13.7145 13.8377 13.6773 13.9155 13.6619C13.9903 13.647 14.0541 13.6586 14.0962 13.6727C14.136 13.6861 14.163 13.7037 14.1778 13.7145C14.1862 13.7206 14.1937 13.7267 14.2005 13.7327C14.204 13.7358 14.2074 13.739 14.2109 13.7424C14.2127 13.7441 14.2144 13.7458 14.2162 13.7476C14.2171 13.7485 14.218 13.7494 14.2189 13.7503C14.2194 13.7508 14.2199 13.7512 14.2203 13.7517C14.2206 13.7519 14.2208 13.7522 14.221 13.7524C14.2211 13.7525 14.2213 13.7527 14.2214 13.7528C14.2215 13.7529 14.2217 13.7531 13.8636 14.102ZM13.3909 14.3364L13.51 14.4555L14.2171 13.7484L14.098 13.6293L13.3909 14.3364ZM10.6462 11.5918L13.3909 14.3364L14.098 13.6293L11.3534 10.8847L10.6462 11.5918ZM10.6462 10.8847L7.90106 13.6299L8.60817 14.337L11.3534 11.5918L10.6462 10.8847ZM7.90106 13.6299L7.78192 13.749L8.48903 14.4561L8.60817 14.337L7.90106 13.6299ZM8.13548 14.1026C7.85711 13.6872 7.85727 13.6871 7.85743 13.687C7.85749 13.687 7.85765 13.6869 7.85775 13.6868C7.85797 13.6866 7.85818 13.6865 7.85839 13.6864C7.85881 13.6861 7.85923 13.6858 7.85964 13.6855C7.86046 13.685 7.86127 13.6845 7.86205 13.6839C7.86363 13.6829 7.86514 13.6819 7.86659 13.681C7.86948 13.6792 7.87217 13.6776 7.8747 13.6761C7.87966 13.6731 7.88444 13.6705 7.88926 13.6681C7.89738 13.6641 7.91234 13.6572 7.93434 13.6518C7.95564 13.6466 7.99897 13.6388 8.05597 13.648C8.11917 13.6582 8.18448 13.6871 8.23708 13.7358L7.55732 14.4693C7.77815 14.6739 8.03767 14.6562 8.17333 14.6228C8.2424 14.6058 8.29818 14.5816 8.33535 14.5631C8.3547 14.5534 8.37106 14.5443 8.38398 14.5367C8.39048 14.5328 8.39624 14.5293 8.40121 14.5261C8.4037 14.5246 8.40599 14.5231 8.4081 14.5217C8.40915 14.521 8.41016 14.5204 8.41111 14.5197C8.41159 14.5194 8.41206 14.5191 8.41251 14.5188C8.41274 14.5186 8.41297 14.5185 8.41319 14.5183C8.4133 14.5183 8.41346 14.5182 8.41352 14.5181C8.41368 14.518 8.41384 14.5179 8.13548 14.1026ZM8.23708 13.7358C8.29714 13.7915 8.33447 13.8657 8.34747 13.9397C8.35891 14.0049 8.34905 14.0536 8.34355 14.0747C8.33771 14.0971 8.33065 14.1116 8.32721 14.1183C8.32503 14.1225 8.32264 14.1267 8.31995 14.1311C8.31857 14.1334 8.31704 14.1358 8.3153 14.1385C8.31444 14.1398 8.31351 14.1412 8.31252 14.1427C8.31203 14.1434 8.31152 14.1442 8.31099 14.145C8.31073 14.1453 8.31046 14.1457 8.31019 14.1461C8.31005 14.1463 8.30992 14.1465 8.30978 14.1467C8.30971 14.1468 8.3096 14.147 8.30957 14.147C8.30946 14.1472 8.30936 14.1473 7.8972 13.8643C7.48504 13.5812 7.48493 13.5814 7.48483 13.5815C7.48479 13.5816 7.48468 13.5817 7.48461 13.5818C7.48447 13.5821 7.48432 13.5823 7.48417 13.5825C7.48388 13.5829 7.48357 13.5834 7.48326 13.5838C7.48264 13.5847 7.48199 13.5857 7.48131 13.5867C7.47995 13.5888 7.47847 13.591 7.4769 13.5934C7.47375 13.5983 7.47016 13.6039 7.46624 13.6103C7.45847 13.6231 7.44906 13.6394 7.43906 13.6587C7.42 13.6956 7.39419 13.7522 7.37585 13.8226C7.34048 13.9584 7.31527 14.2449 7.55732 14.4693L8.23708 13.7358ZM8.25075 14.2178L8.36989 14.0987L7.66278 13.3916L7.54365 13.5107L8.25075 14.2178ZM8.36989 14.0987L11.1151 11.3535L10.408 10.6464L7.66278 13.3916L8.36989 14.0987Z" fill="#3E3E3E"/>
</svg>
