<?xml version="1.0" encoding="UTF-8"?>
<svg width="18px" height="18px" viewBox="0 0 18 18" version="1.1" xmlns="http://www.w3.org/2000/svg" xmlns:xlink="http://www.w3.org/1999/xlink">
    <title>icon/content/add_24px copy</title>
    <defs>
        <path d="M2.25,0.15 L14.25,0.15 C15.409798,0.15 16.35,1.09020203 16.35,2.25 L16.35,5.25 C16.35,6.40979797 15.409798,7.35 14.25,7.35 L2.25,7.35 C1.09020203,7.35 0.15,6.40979797 0.15,5.25 L0.15,2.25 C0.15,1.09020203 1.09020203,0.15 2.25,0.15 Z M2.25,1.35 C1.75294373,1.35 1.35,1.75294373 1.35,2.25 L1.35,5.25 C1.35,5.74705627 1.75294373,6.15 2.25,6.15 L14.25,6.15 C14.7470563,6.15 15.15,5.74705627 15.15,5.25 L15.15,2.25 C15.15,1.75294373 14.7470563,1.35 14.25,1.35 L2.25,1.35 Z M2.25,9.15 L14.25,9.15 C15.409798,9.15 16.35,10.090202 16.35,11.25 L16.35,14.25 C16.35,15.409798 15.409798,16.35 14.25,16.35 L2.25,16.35 C1.09020203,16.35 0.15,15.409798 0.15,14.25 L0.15,11.25 C0.15,10.090202 1.09020203,9.15 2.25,9.15 Z M2.25,10.35 C1.75294373,10.35 1.35,10.7529437 1.35,11.25 L1.35,14.25 C1.35,14.7470563 1.75294373,15.15 2.25,15.15 L14.25,15.15 C14.7470563,15.15 15.15,14.7470563 15.15,14.25 L15.15,11.25 C15.15,10.7529437 14.7470563,10.35 14.25,10.35 L2.25,10.35 Z" id="path-1"></path>
    </defs>
    <g id="symbols" stroke="none" stroke-width="1" fill="none" fill-rule="evenodd">
        <g id="forms/form-field-(slot)" transform="translate(-12.000000, -20.000000)">
            <g id="Group" transform="translate(12.000000, 20.000000)">
                <g id="color/gray-#1" transform="translate(0.750000, 0.750000)">
                    <mask id="mask-2" fill="white">
                        <use xlink:href="#path-1"></use>
                    </mask>
                    <g id="Mask" fill-rule="nonzero"></g>
                    <g id="Group" mask="url(#mask-2)">
                        <g transform="translate(-0.750000, -0.750000)" id="color/gray-#1">
                            <rect id="Rectangle" fill="#BAC0C2" x="0" y="0" width="18" height="18"></rect>
                        </g>
                    </g>
                </g>
            </g>
        </g>
    </g>
</svg>