<svg width="15" height="13" viewBox="0 0 15 13" fill="none" xmlns="http://www.w3.org/2000/svg">
<path d="M13.9286 7.42857C13.8066 7.4285 13.6858 7.45247 13.5731 7.49911C13.4604 7.54576 13.3581 7.61415 13.2718 7.70039C13.1856 7.78663 13.1172 7.88902 13.0705 8.00171C13.0239 8.1144 12.9999 8.23518 13 8.35714V11.1429H1.85714V8.35714C1.85714 8.11087 1.75931 7.87468 1.58517 7.70054C1.41103 7.5264 1.17484 7.42857 0.928572 7.42857C0.682299 7.42857 0.446113 7.5264 0.271972 7.70054C0.0978315 7.87468 1.4927e-07 8.11087 1.4927e-07 8.35714V12.0714C-6.90209e-05 12.1934 0.023902 12.3142 0.0705426 12.4269C0.117183 12.5396 0.185579 12.6419 0.271818 12.7282C0.358058 12.8144 0.46045 12.8828 0.573141 12.9295C0.685832 12.9761 0.80661 13.0001 0.928572 13H13.9286C14.0505 13.0001 14.1713 12.9761 14.284 12.9295C14.3967 12.8828 14.4991 12.8144 14.5853 12.7282C14.6716 12.6419 14.74 12.5396 14.7866 12.4269C14.8332 12.3142 14.8572 12.1934 14.8571 12.0714V8.35714C14.8572 8.23518 14.8332 8.1144 14.7866 8.00171C14.74 7.88902 14.6716 7.78663 14.5853 7.70039C14.4991 7.61415 14.3967 7.54576 14.284 7.49911C14.1713 7.45247 14.0505 7.4285 13.9286 7.42857Z" fill="#149372"/>
<path d="M6.77166 9.01367C6.85786 9.09992 6.96021 9.16833 7.07286 9.21501C7.18551 9.26169 7.30625 9.28571 7.42819 9.28571C7.55012 9.28571 7.67087 9.26169 7.78352 9.21501C7.89617 9.16833 7.99852 9.09992 8.08472 9.01367L10.8704 6.22796C11.0438 6.05367 11.1409 5.81776 11.1406 5.57196C11.1402 5.32616 11.0424 5.09053 10.8686 4.91672C10.6948 4.74292 10.4592 4.64512 10.2134 4.64478C9.96757 4.64444 9.73166 4.74158 9.55737 4.9149L8.35676 6.11551V0.928571C8.35676 0.682299 8.25893 0.446113 8.08479 0.271972C7.91065 0.0978314 7.67446 0 7.42819 0C7.18191 0 6.94573 0.0978314 6.77159 0.271972C6.59745 0.446113 6.49962 0.682299 6.49962 0.928571V6.11551L5.299 4.9149C5.12471 4.74158 4.88881 4.64444 4.64301 4.64478C4.39721 4.64512 4.16157 4.74292 3.98777 4.91672C3.81396 5.09053 3.71616 5.32616 3.71582 5.57196C3.71548 5.81776 3.81262 6.05367 3.98594 6.22796L6.77166 9.01367Z" fill="#149372"/>
</svg>
