<svg width="18" height="18" viewBox="0 0 18 18" fill="none" xmlns="http://www.w3.org/2000/svg">
<path d="M17.2287 2.23L15.8698 0.55C15.6059 0.21 15.2051 0 14.7456 0H3.01475C2.55529 0 2.15449 0.21 1.88077 0.55L0.531715 2.23C0.248219 2.57 0.0820312 3.02 0.0820312 3.5V16C0.0820312 17.1 0.961847 18 2.03718 18H15.7232C16.7985 18 17.6783 17.1 17.6783 16V3.5C17.6783 3.02 17.5122 2.57 17.2287 2.23ZM3.24937 2H14.511L15.3224 3H2.44776L3.24937 2ZM2.03718 16V5H15.7232V16H2.03718ZM4.9699 11H7.46271V14H10.2977V11H12.7905L8.88019 7L4.9699 11Z" fill="#149372"/>
</svg>
