<svg width="56" height="70" viewBox="0 0 56 70" fill="none" xmlns="http://www.w3.org/2000/svg">
<path d="M38.5 19.3333H35.75V13.8095C35.75 6.18667 29.59 0 22 0C14.41 0 8.25 6.18667 8.25 13.8095V19.3333H5.5C2.475 19.3333 0 21.819 0 24.8571V52.4762C0 55.5143 2.475 58 5.5 58H38.5C41.525 58 44 55.5143 44 52.4762V24.8571C44 21.819 41.525 19.3333 38.5 19.3333ZM22 44.1905C18.975 44.1905 16.5 41.7048 16.5 38.6667C16.5 35.6286 18.975 33.1429 22 33.1429C25.025 33.1429 27.5 35.6286 27.5 38.6667C27.5 41.7048 25.025 44.1905 22 44.1905ZM30.525 19.3333H13.475V13.8095C13.475 9.08667 17.2975 5.24762 22 5.24762C26.7025 5.24762 30.525 9.08667 30.525 13.8095V19.3333Z" fill="#4A4A4A"/>
<circle cx="44.0007" cy="58.0002" r="10.2273" fill="#0E7258" stroke="white" stroke-width="3"/>
<path fill-rule="evenodd" clip-rule="evenodd" d="M47.4174 54.4463L42.9934 59.0253L40.5833 56.5378L39.6367 57.5175L42.9934 60.9917L48.364 55.433L47.4174 54.4463Z" fill="white"/>
</svg>
