<svg width="24" height="24" viewBox="0 0 24 24" fill="none" xmlns="http://www.w3.org/2000/svg">
<path fill-rule="evenodd" clip-rule="evenodd" d="M16.8115 15.605L19.7415 18.535C20.0862 18.8797 20.0862 19.3968 19.7415 19.7415C19.5691 19.9138 19.368 20 19.1382 20C18.9084 20 18.7074 19.9138 18.535 19.7415L15.605 16.8115C14.3698 17.8169 12.7899 18.3627 11.1813 18.3627C7.21724 18.3627 4 15.1454 4 11.1813C4 7.21724 7.21724 4 11.1813 4C15.1454 4 18.3627 7.21724 18.3627 11.1813C18.3627 12.7612 17.8169 14.3124 16.8115 15.605ZM11.1813 16.6678C14.1975 16.6678 16.6391 14.2261 16.6391 11.2099C16.6391 8.19379 14.1975 5.75214 11.1813 5.75214C8.16514 5.75214 5.72349 8.19379 5.72349 11.2099C5.72349 14.2261 8.16514 16.6678 11.1813 16.6678Z" fill="#A3A9AB"/>
</svg>
