<svg width="32" height="32" viewBox="0 0 32 32" fill="none" xmlns="http://www.w3.org/2000/svg">
<mask id="path-1-inside-1" fill="white">
<path fill-rule="evenodd" clip-rule="evenodd" d="M25.3333 20.1379C25.3333 19.2294 24.6333 18.493 23.777 18.493C23.3479 18.493 23 18.1273 23 17.6698V12.7353C23 8.64735 19.8668 5.33337 16 5.33337C12.134 5.33337 9.00001 8.6456 9.00001 12.7353V17.6698C9.00001 18.1244 8.65068 18.493 8.22304 18.493C7.36348 18.493 6.66667 19.2313 6.66667 20.1379C6.66667 21.0464 7.36436 21.7829 8.22607 21.7829H23.7739C24.6352 21.7829 25.3333 21.0446 25.3333 20.1379ZM16.0556 26.6667C17.559 26.6667 18.7778 25.3779 18.7778 23.788H13.3333C13.3333 25.3779 14.5521 26.6667 16.0556 26.6667Z"/>
</mask>
<path fill-rule="evenodd" clip-rule="evenodd" d="M25.3333 20.1379C25.3333 19.2294 24.6333 18.493 23.777 18.493C23.3479 18.493 23 18.1273 23 17.6698V12.7353C23 8.64735 19.8668 5.33337 16 5.33337C12.134 5.33337 9.00001 8.6456 9.00001 12.7353V17.6698C9.00001 18.1244 8.65068 18.493 8.22304 18.493C7.36348 18.493 6.66667 19.2313 6.66667 20.1379C6.66667 21.0464 7.36436 21.7829 8.22607 21.7829H23.7739C24.6352 21.7829 25.3333 21.0446 25.3333 20.1379ZM16.0556 26.6667C17.559 26.6667 18.7778 25.3779 18.7778 23.788H13.3333C13.3333 25.3779 14.5521 26.6667 16.0556 26.6667Z" fill="#149372"/>
<path d="M18.7778 23.788H19.7778V22.788H18.7778V23.788ZM13.3333 23.788V22.788H12.3333V23.788H13.3333ZM23.777 19.493C24.0309 19.493 24.3333 19.7303 24.3333 20.1379H26.3333C26.3333 18.7286 25.2357 17.493 23.777 17.493V19.493ZM22 17.6698C22 18.6267 22.7441 19.493 23.777 19.493V17.493C23.8555 17.493 23.9186 17.5283 23.954 17.5657C23.9886 17.6022 24 17.6422 24 17.6698H22ZM22 12.7353V17.6698H24V12.7353H22ZM16 6.33337C19.2626 6.33337 22 9.14621 22 12.7353H24C24 8.14849 20.4711 4.33337 16 4.33337V6.33337ZM10 12.7353C10 9.1447 12.738 6.33337 16 6.33337V4.33337C11.53 4.33337 8.00001 8.1465 8.00001 12.7353H10ZM10 17.6698V12.7353H8.00001V17.6698H10ZM8.22304 19.493C9.25544 19.493 10 18.6227 10 17.6698H8.00001C8.00001 17.6384 8.01265 17.5993 8.0451 17.565C8.07825 17.5299 8.14079 17.493 8.22304 17.493V19.493ZM7.66667 20.1379C7.66667 19.73 7.96791 19.493 8.22304 19.493V17.493C6.75905 17.493 5.66667 18.7326 5.66667 20.1379H7.66667ZM8.22607 20.7829C7.96649 20.7829 7.66667 20.5453 7.66667 20.1379H5.66667C5.66667 21.5475 6.76223 22.7829 8.22607 22.7829V20.7829ZM23.7739 20.7829H8.22607V22.7829H23.7739V20.7829ZM24.3333 20.1379C24.3333 20.544 24.0325 20.7829 23.7739 20.7829V22.7829C25.2378 22.7829 26.3333 21.5451 26.3333 20.1379H24.3333ZM17.7778 23.788C17.7778 24.879 16.9548 25.6667 16.0556 25.6667V27.6667C18.1632 27.6667 19.7778 25.8768 19.7778 23.788H17.7778ZM13.3333 24.788H18.7778V22.788H13.3333V24.788ZM16.0556 25.6667C15.1563 25.6667 14.3333 24.879 14.3333 23.788H12.3333C12.3333 25.8768 13.9479 27.6667 16.0556 27.6667V25.6667Z" fill="#149372" mask="url(#path-1-inside-1)"/>
</svg>
