<svg width="30" height="30" viewBox="0 0 30 30" fill="none" xmlns="http://www.w3.org/2000/svg">
<path d="M0.5 25C0.5 25.6092 0.621347 26.1914 0.841659 26.7227L1.30352 26.5312C1.70898 27.5089 2.49109 28.291 3.46885 28.6965L3.27732 29.1583C3.8086 29.3787 4.39076 29.5 5 29.5H7.5V29H12.5V29.5H17.5V29H22.5V29.5H25C25.6092 29.5 26.1914 29.3787 26.7227 29.1583L26.5312 28.6965C27.5089 28.291 28.291 27.5089 28.6965 26.5312L29.1583 26.7227C29.3787 26.1914 29.5 25.6092 29.5 25V22.5H29V17.5H29.5V12.5H29V7.5H29.5V5C29.5 4.39076 29.3787 3.8086 29.1583 3.27732L28.6965 3.46885C28.291 2.49109 27.5089 1.70898 26.5312 1.30352L26.7227 0.841659C26.1914 0.621347 25.6092 0.5 25 0.5H22.5V1H17.5V0.5H12.5V1H7.5V0.5H5C4.39076 0.5 3.8086 0.621347 3.27732 0.841659L3.46885 1.30352C2.49109 1.70898 1.70898 2.49109 1.30352 3.46885L0.841659 3.27732C0.621347 3.8086 0.5 4.39076 0.5 5V7.5H1V12.5H0.5V17.5H1V22.5H0.5V25Z" fill="white" stroke="#149372" stroke-dasharray="5 5"/>
<path d="M15.8205 14.1795H22.1795C23.2735 14.1795 23.2735 15.8205 22.1795 15.8205H15.8205V22.1795C15.8205 23.2735 14.1795 23.2735 14.1795 22.1795V15.8205H7.82051C6.7265 15.8205 6.7265 14.1795 7.82051 14.1795H14.1795V7.82051C14.1795 6.7265 15.8205 6.7265 15.8205 7.82051V14.1795Z" fill="#149372"/>
</svg>
