<svg width="15" height="15" viewBox="0 0 15 15" fill="none" xmlns="http://www.w3.org/2000/svg">
<path d="M10.5037 4.49663C9.67491 3.66788 8.59116 3.24996 7.50033 3.24996V7.49996L4.49699 10.5033C6.15449 12.1608 8.84616 12.1608 10.5107 10.5033C12.1682 8.84579 12.1682 6.15413 10.5037 4.49663V4.49663ZM7.50033 0.416626C3.59033 0.416626 0.416992 3.58996 0.416992 7.49996C0.416992 11.41 3.59033 14.5833 7.50033 14.5833C11.4103 14.5833 14.5837 11.41 14.5837 7.49996C14.5837 3.58996 11.4103 0.416626 7.50033 0.416626ZM7.50033 13.1666C4.36949 13.1666 1.83366 10.6308 1.83366 7.49996C1.83366 4.36913 4.36949 1.83329 7.50033 1.83329C10.6312 1.83329 13.167 4.36913 13.167 7.49996C13.167 10.6308 10.6312 13.1666 7.50033 13.1666Z" fill="#3E3E3E"/>
</svg>
