<?xml version="1.0" encoding="UTF-8"?>
<svg width="22px" height="22px" viewBox="0 0 22 22" version="1.1" xmlns="http://www.w3.org/2000/svg" xmlns:xlink="http://www.w3.org/1999/xlink">
    <title>icons/search</title>
    <defs>
        <path d="M11,0.2 C16.9646753,0.2 21.8,5.0353247 21.8,11 C21.8,16.9646753 16.9646753,21.8 11,21.8 C5.0353247,21.8 0.2,16.9646753 0.2,11 C0.2,5.0353247 5.0353247,0.2 11,0.2 Z M11,1.8 C5.9189803,1.8 1.8,5.9189803 1.8,11 C1.8,16.0810197 5.9189803,20.2 11,20.2 C16.0810197,20.2 20.2,16.0810197 20.2,11 C20.2,5.9189803 16.0810197,1.8 11,1.8 Z M11,6 C13.7614237,6 16,8.23857625 16,11 C16,13.7614237 13.7614237,16 11,16 C8.23857625,16 6,13.7614237 6,11 C6,8.23857625 8.23857625,6 11,6 Z" id="path-1"></path>
    </defs>
    <g id="symbols" stroke="none" stroke-width="1" fill="none" fill-rule="evenodd">
        <g id="forms/form-field-(full-+-icon)" transform="translate(-13.000000, -19.000000)">
            <g id="Group" transform="translate(12.000000, 18.000000)">
                <g id="color/gray-#1" transform="translate(1.000000, 1.000000)">
                    <mask id="mask-2" fill="white">
                        <use xlink:href="#path-1"></use>
                    </mask>
                    <g id="Mask" fill-rule="nonzero"></g>
                    <g id="Group" mask="url(#mask-2)">
                        <g transform="translate(-1.000000, -1.000000)" id="color/gray-#1">
                            <rect id="Rectangle" fill="#BAC0C2" x="0" y="0" width="24" height="24"></rect>
                        </g>
                    </g>
                </g>
            </g>
        </g>
    </g>
</svg>