<svg xmlns="http://www.w3.org/2000/svg" width="22.68" height="22.68" viewBox="0 0 22.68 22.68">
    <path id="prefix__arrow-circle-up-solid" d="M8 19.34a11.34 11.34 0 1 1 11.34 11.34A11.338 11.338 0 0 1 8 19.34zm6.566 1.321l3.311-3.452v8.349a1.1 1.1 0 0 0 1.1 1.1h.732a1.1 1.1 0 0 0 1.1-1.1v-8.349l3.311 3.452a1.1 1.1 0 0 0 1.568.018l.5-.5a1.093 1.093 0 0 0 0-1.55l-6.063-6.068a1.093 1.093 0 0 0-1.55 0l-6.072 6.068a1.093 1.093 0 0 0 0 1.55l.5.5a1.1 1.1 0 0 0 1.563-.018z" transform="translate(-8 -8)" style="fill:#0027ff"/>
</svg>
