<svg xmlns="http://www.w3.org/2000/svg" width="22.68" height="22.68" viewBox="0 0 22.68 22.68">
    <path id="prefix__arrow-circle-down-solid" d="M30.68 19.34A11.34 11.34 0 1 1 19.34 8a11.338 11.338 0 0 1 11.34 11.34zm-6.566-1.321L20.8 21.471v-8.35a1.1 1.1 0 0 0-1.1-1.1h-.732a1.1 1.1 0 0 0-1.1 1.1v8.349l-3.311-3.452A1.1 1.1 0 0 0 13 18l-.5.5a1.093 1.093 0 0 0 0 1.55l6.063 6.068a1.093 1.093 0 0 0 1.55 0l6.068-6.068a1.093 1.093 0 0 0 0-1.55l-.5-.5a1.1 1.1 0 0 0-1.567.018z" transform="translate(-8 -8)" style="fill:#0014ff"/>
</svg>
