<svg width="24" height="24" viewBox="0 0 24 24" fill="none" xmlns="http://www.w3.org/2000/svg">
<mask id="mask0" mask-type="alpha" maskUnits="userSpaceOnUse" x="1" y="1" width="22" height="22">
<path fill-rule="evenodd" clip-rule="evenodd" d="M12.0002 22.8C17.9649 22.8 22.8002 17.9646 22.8002 12C22.8002 6.03528 17.9649 1.19995 12.0002 1.19995C6.03552 1.19995 1.2002 6.03528 1.2002 12C1.2002 17.9646 6.03552 22.8 12.0002 22.8ZM12.0002 21.2C6.91918 21.2 2.8002 17.081 2.8002 12C2.8002 6.91893 6.91918 2.79995 12.0002 2.79995C17.0812 2.79995 21.2002 6.91893 21.2002 12C21.2002 17.081 17.0812 21.2 12.0002 21.2ZM12.0002 17C14.7616 17 17.0002 14.7614 17.0002 12C17.0002 9.23853 14.7616 6.99995 12.0002 6.99995C9.23877 6.99995 7.0002 9.23853 7.0002 12C7.0002 14.7614 9.23877 17 12.0002 17Z" fill="white"/>
</mask>
<g mask="url(#mask0)">
<rect width="24" height="24" fill="#00A0B5"/>
</g>
</svg>
